<?xml version="1.0" encoding="utf-8"?>
<!-- Generator: Adobe Illustrator 23.0.6, SVG Export Plug-In . SVG Version: 6.00 Build 0)  -->
<svg version="1.1" id="Layer_1" xmlns="http://www.w3.org/2000/svg" xmlns:xlink="http://www.w3.org/1999/xlink" x="0px" y="0px"
	 viewBox="0 0 128 128" style="enable-background:new 0 0 128 128;" xml:space="preserve">
<style type="text/css">
	.st0{fill:#444444;}
</style>
<g>
	<g>
		<g>
			<path class="st0" d="M53.61,90.53c0,0.73-0.04,1.45-0.12,2.18c-0.08,0.73-0.18,1.45-0.3,2.18c-0.32,1.98-0.87,3.91-1.63,5.78
				c-0.77,1.88-1.66,3.66-2.66,5.36c-1.13,1.86-2.36,3.62-3.69,5.3s-2.66,3.22-4,4.63c-1.13,1.17-2.25,2.27-3.36,3.3
				c-1.11,1.03-2.15,1.95-3.12,2.75c-0.69,0.56-1.32,1.08-1.91,1.54s-1.1,0.88-1.54,1.24c-0.32,0.2-0.6,0.39-0.82,0.58
				c-0.22,0.18-0.43,0.33-0.64,0.45c-0.2,0.12-0.4,0.26-0.61,0.42c-0.44,0.3-0.93,0.44-1.45,0.44c-0.53,0-1.01-0.14-1.45-0.42
				c-0.2-0.16-0.4-0.3-0.61-0.42c-0.2-0.12-0.41-0.27-0.64-0.45c-0.22-0.18-0.47-0.37-0.76-0.58c-0.48-0.36-1.02-0.78-1.6-1.24
				c-0.59-0.46-1.22-0.98-1.91-1.54c-0.97-0.81-2.01-1.73-3.12-2.75c-1.11-1.03-2.23-2.13-3.36-3.3c-1.33-1.41-2.66-2.96-4-4.63
				s-2.56-3.44-3.69-5.3c-1.01-1.7-1.89-3.48-2.63-5.36c-0.75-1.88-1.3-3.8-1.67-5.78c-0.12-0.73-0.22-1.45-0.3-2.18
				C1.94,92,1.9,91.28,1.9,90.55c0-1.73,0.17-3.43,0.51-5.09c0.35-1.67,0.85-3.26,1.49-4.8c0.65-1.57,1.44-3.07,2.39-4.48
				s2.01-2.72,3.18-3.94c1.21-1.17,2.52-2.23,3.94-3.18c1.41-0.95,2.91-1.75,4.48-2.39c1.53-0.64,3.13-1.14,4.78-1.48
				c1.66-0.34,3.35-0.51,5.09-0.51s3.43,0.17,5.09,0.51c1.65,0.34,3.25,0.84,4.78,1.48c1.57,0.65,3.07,1.44,4.48,2.39
				s2.72,2.01,3.94,3.18c1.17,1.21,2.23,2.52,3.18,3.94c0.95,1.41,1.75,2.91,2.39,4.48c0.65,1.54,1.14,3.13,1.48,4.78
				C53.44,87.1,53.61,88.8,53.61,90.53z M48.41,90.53c0-1.41-0.13-2.78-0.39-4.09c-0.26-1.31-0.64-2.59-1.12-3.84
				c-0.53-1.25-1.17-2.44-1.94-3.57s-1.63-2.16-2.6-3.09c-0.93-0.97-1.96-1.84-3.09-2.6c-1.13-0.77-2.32-1.41-3.57-1.94
				c-1.25-0.48-2.53-0.86-3.84-1.12c-1.31-0.26-2.67-0.39-4.09-0.39c-1.41,0-2.78,0.13-4.09,0.39s-2.59,0.64-3.84,1.12
				c-1.25,0.53-2.44,1.17-3.57,1.94c-1.13,0.77-2.16,1.63-3.09,2.6c-0.97,0.93-1.84,1.96-2.6,3.09c-0.77,1.13-1.41,2.32-1.94,3.57
				c-0.48,1.25-0.86,2.53-1.12,3.84s-0.39,2.67-0.39,4.09c0,0.57,0.02,1.14,0.06,1.73c0.04,0.58,0.12,1.16,0.24,1.73
				c0.28,1.62,0.75,3.21,1.39,4.78c0.65,1.57,1.41,3.11,2.3,4.6c0.97,1.66,2.06,3.24,3.27,4.75s2.44,2.94,3.69,4.27
				c1.05,1.13,2.09,2.17,3.12,3.12s2.01,1.81,2.94,2.57c0.61,0.53,1.19,1.01,1.76,1.45c0.56,0.45,1.07,0.83,1.51,1.15
				c0.04,0.04,0.09,0.08,0.15,0.12s0.13,0.08,0.21,0.12c0.04-0.04,0.1-0.08,0.18-0.12s0.14-0.08,0.18-0.12
				c0.44-0.32,0.95-0.71,1.51-1.15s1.15-0.93,1.76-1.45c0.93-0.77,1.91-1.63,2.94-2.57s2.07-1.99,3.12-3.12
				c1.25-1.33,2.48-2.75,3.69-4.27s2.3-3.1,3.27-4.75c0.89-1.49,1.65-3.03,2.3-4.6c0.65-1.57,1.11-3.17,1.39-4.78
				c0.12-0.56,0.2-1.14,0.24-1.73C48.39,91.67,48.41,91.1,48.41,90.53z M38.11,90.53c0,0.69-0.07,1.36-0.21,2.03
				s-0.33,1.3-0.58,1.91c-0.28,0.65-0.62,1.25-1,1.82s-0.8,1.09-1.24,1.57c-0.48,0.45-1.01,0.86-1.57,1.24
				c-0.57,0.38-1.17,0.72-1.82,1c-0.61,0.24-1.24,0.43-1.91,0.58s-1.34,0.21-2.03,0.21s-1.36-0.07-2.03-0.21s-1.3-0.33-1.91-0.58
				c-0.65-0.28-1.25-0.62-1.82-1s-1.09-0.8-1.57-1.24c-0.44-0.48-0.86-1.01-1.24-1.57s-0.72-1.17-1-1.82
				c-0.24-0.61-0.43-1.24-0.58-1.91c-0.14-0.67-0.21-1.34-0.21-2.03s0.07-1.36,0.21-2.03s0.33-1.3,0.58-1.91
				c0.28-0.64,0.62-1.25,1-1.82c0.38-0.56,0.8-1.09,1.24-1.57c0.48-0.44,1.01-0.86,1.57-1.24s1.17-0.72,1.82-1
				c0.61-0.24,1.24-0.43,1.91-0.58s1.35-0.2,2.04-0.2s1.36,0.07,2.03,0.21s1.3,0.33,1.91,0.58c0.65,0.28,1.25,0.62,1.82,1
				c0.56,0.38,1.09,0.8,1.57,1.24c0.44,0.48,0.86,1.01,1.24,1.57c0.38,0.57,0.72,1.17,1,1.82c0.24,0.61,0.43,1.24,0.58,1.91
				C38.04,89.17,38.11,89.85,38.11,90.53z M32.82,89.5c-0.06-0.32-0.15-0.64-0.27-0.97c-0.12-0.28-0.28-0.56-0.48-0.85
				c-0.2-0.28-0.42-0.54-0.67-0.79s-0.5-0.46-0.79-0.67c-0.28-0.2-0.57-0.36-0.85-0.48c-0.32-0.12-0.65-0.21-0.97-0.27
				s-0.67-0.09-1.03-0.09s-0.71,0.03-1.03,0.09c-0.32,0.06-0.65,0.15-0.97,0.27c-0.28,0.12-0.57,0.28-0.85,0.48
				c-0.28,0.2-0.54,0.42-0.79,0.67s-0.46,0.51-0.67,0.79c-0.2,0.28-0.36,0.57-0.48,0.85c-0.12,0.32-0.21,0.65-0.27,0.97
				c-0.06,0.32-0.09,0.67-0.09,1.03s0.03,0.71,0.09,1.03s0.15,0.65,0.27,0.97c0.12,0.28,0.28,0.57,0.48,0.85
				c0.2,0.28,0.42,0.54,0.67,0.79s0.5,0.46,0.79,0.67c0.28,0.2,0.56,0.36,0.85,0.48c0.32,0.12,0.65,0.21,0.97,0.27
				c0.32,0.06,0.67,0.09,1.03,0.09s0.71-0.03,1.03-0.09c0.32-0.06,0.65-0.15,0.97-0.27c0.28-0.12,0.56-0.28,0.85-0.48
				c0.28-0.2,0.54-0.42,0.79-0.67s0.46-0.5,0.67-0.79c0.2-0.28,0.36-0.56,0.48-0.85c0.12-0.32,0.21-0.64,0.27-0.97
				c0.06-0.32,0.09-0.67,0.09-1.03S32.88,89.83,32.82,89.5z"/>
		</g>
		<g>
			<path class="st0" d="M126.1,14.67c0,0.38-0.02,0.75-0.06,1.13s-0.09,0.75-0.16,1.13c-0.17,1.02-0.45,2.02-0.84,2.98
				c-0.4,0.97-0.85,1.89-1.38,2.77c-0.58,0.96-1.22,1.87-1.91,2.73c-0.69,0.86-1.38,1.66-2.06,2.39c-0.58,0.6-1.16,1.17-1.73,1.7
				s-1.11,1.01-1.61,1.42c-0.35,0.29-0.68,0.56-0.98,0.8s-0.57,0.45-0.8,0.64c-0.17,0.1-0.31,0.2-0.42,0.3
				c-0.12,0.09-0.22,0.17-0.33,0.23c-0.1,0.06-0.21,0.14-0.31,0.22c-0.23,0.15-0.48,0.22-0.75,0.22s-0.52-0.07-0.75-0.22
				c-0.1-0.08-0.21-0.16-0.31-0.22s-0.21-0.14-0.33-0.23s-0.25-0.19-0.39-0.3c-0.25-0.19-0.53-0.4-0.83-0.64
				c-0.3-0.24-0.63-0.51-0.98-0.8c-0.5-0.42-1.04-0.89-1.61-1.42s-1.15-1.1-1.73-1.7c-0.69-0.73-1.38-1.53-2.06-2.39
				c-0.69-0.86-1.32-1.78-1.91-2.73c-0.52-0.88-0.97-1.8-1.36-2.77c-0.39-0.97-0.67-1.96-0.86-2.98c-0.06-0.38-0.12-0.75-0.16-1.13
				s-0.06-0.75-0.06-1.13c0-0.9,0.09-1.77,0.27-2.63c0.18-0.85,0.43-1.68,0.77-2.47c0.33-0.81,0.74-1.58,1.23-2.31
				c0.49-0.73,1.04-1.41,1.64-2.03c0.63-0.6,1.3-1.15,2.03-1.64c0.73-0.49,1.5-0.9,2.31-1.23c0.79-0.33,1.61-0.59,2.47-0.77
				c0.85-0.18,1.73-0.27,2.63-0.27c0.9,0,1.77,0.09,2.63,0.27c0.85,0.18,1.68,0.43,2.47,0.77c0.81,0.33,1.58,0.75,2.31,1.23
				c0.73,0.49,1.41,1.04,2.03,1.64c0.6,0.63,1.15,1.3,1.64,2.03s0.9,1.5,1.23,2.31c0.33,0.79,0.59,1.61,0.77,2.47
				C126.01,12.9,126.1,13.77,126.1,14.67z M123.42,14.67c0-0.73-0.07-1.43-0.2-2.11c-0.14-0.68-0.33-1.34-0.58-1.98
				c-0.27-0.65-0.6-1.26-1-1.84s-0.84-1.11-1.34-1.59c-0.48-0.5-1.01-0.95-1.59-1.34c-0.58-0.4-1.2-0.73-1.84-1
				c-0.65-0.25-1.31-0.44-1.98-0.58c-0.68-0.14-1.38-0.2-2.11-0.2s-1.43,0.07-2.11,0.2c-0.68,0.14-1.34,0.33-1.98,0.58
				c-0.65,0.27-1.26,0.6-1.84,1c-0.58,0.4-1.12,0.84-1.59,1.34c-0.5,0.48-0.95,1.01-1.34,1.59c-0.4,0.58-0.73,1.2-1,1.84
				c-0.25,0.65-0.44,1.31-0.58,1.98c-0.14,0.68-0.2,1.38-0.2,2.11c0,0.29,0.01,0.59,0.03,0.89s0.06,0.6,0.13,0.89
				c0.15,0.83,0.38,1.66,0.72,2.47c0.33,0.81,0.73,1.6,1.19,2.38c0.5,0.85,1.06,1.67,1.69,2.45s1.26,1.52,1.91,2.2
				c0.54,0.58,1.08,1.12,1.61,1.61s1.04,0.93,1.52,1.33c0.31,0.27,0.61,0.52,0.91,0.75c0.29,0.23,0.55,0.43,0.78,0.59
				c0.02,0.02,0.05,0.04,0.08,0.06c0.03,0.02,0.07,0.04,0.11,0.06c0.02-0.02,0.05-0.04,0.09-0.06c0.04-0.02,0.07-0.04,0.09-0.06
				c0.23-0.17,0.49-0.36,0.78-0.59s0.59-0.48,0.91-0.75c0.48-0.4,0.98-0.84,1.52-1.33c0.53-0.49,1.07-1.03,1.61-1.61
				c0.65-0.69,1.28-1.42,1.91-2.2s1.19-1.6,1.69-2.45c0.46-0.77,0.85-1.56,1.19-2.38c0.33-0.81,0.57-1.64,0.72-2.47
				c0.06-0.29,0.1-0.59,0.13-0.89C123.41,15.26,123.42,14.97,123.42,14.67z M118.1,14.67c0,0.35-0.04,0.7-0.11,1.05
				c-0.07,0.34-0.17,0.67-0.3,0.98c-0.15,0.33-0.32,0.65-0.52,0.94s-0.41,0.56-0.64,0.81c-0.25,0.23-0.52,0.44-0.81,0.64
				c-0.29,0.2-0.6,0.37-0.94,0.52c-0.31,0.13-0.64,0.22-0.98,0.3c-0.34,0.07-0.69,0.11-1.05,0.11c-0.35,0-0.7-0.04-1.05-0.11
				c-0.34-0.07-0.67-0.17-0.98-0.3c-0.33-0.15-0.65-0.32-0.94-0.52s-0.56-0.41-0.81-0.64c-0.23-0.25-0.44-0.52-0.64-0.81
				c-0.2-0.29-0.37-0.6-0.52-0.94c-0.13-0.31-0.22-0.64-0.3-0.98c-0.07-0.34-0.11-0.69-0.11-1.05c0-0.35,0.04-0.7,0.11-1.05
				c0.07-0.34,0.17-0.67,0.3-0.98c0.15-0.33,0.32-0.65,0.52-0.94c0.2-0.29,0.41-0.56,0.64-0.81c0.25-0.23,0.52-0.44,0.81-0.64
				s0.6-0.37,0.94-0.52c0.31-0.13,0.64-0.22,0.98-0.3c0.34-0.07,0.69-0.11,1.05-0.11c0.35,0,0.7,0.04,1.05,0.11
				c0.34,0.07,0.67,0.17,0.98,0.3c0.33,0.15,0.65,0.32,0.94,0.52s0.56,0.41,0.81,0.64c0.23,0.25,0.44,0.52,0.64,0.81
				s0.37,0.6,0.52,0.94c0.13,0.31,0.22,0.64,0.3,0.98C118.07,13.98,118.1,14.32,118.1,14.67z M115.37,14.15
				c-0.03-0.17-0.08-0.33-0.14-0.5c-0.06-0.15-0.15-0.29-0.25-0.44s-0.22-0.28-0.34-0.41c-0.12-0.13-0.26-0.24-0.41-0.34
				s-0.29-0.19-0.44-0.25c-0.17-0.06-0.33-0.11-0.5-0.14s-0.34-0.05-0.53-0.05s-0.37,0.02-0.53,0.05c-0.17,0.03-0.33,0.08-0.5,0.14
				c-0.15,0.06-0.29,0.15-0.44,0.25s-0.28,0.22-0.41,0.34c-0.13,0.12-0.24,0.26-0.34,0.41s-0.19,0.29-0.25,0.44
				c-0.06,0.17-0.11,0.33-0.14,0.5s-0.05,0.34-0.05,0.53c0,0.19,0.02,0.36,0.05,0.53c0.03,0.17,0.08,0.33,0.14,0.5
				c0.06,0.15,0.15,0.29,0.25,0.44s0.22,0.28,0.34,0.41s0.26,0.24,0.41,0.34s0.29,0.19,0.44,0.25c0.17,0.06,0.33,0.11,0.5,0.14
				c0.17,0.03,0.34,0.05,0.53,0.05s0.36-0.02,0.53-0.05c0.17-0.03,0.33-0.08,0.5-0.14c0.15-0.06,0.29-0.15,0.44-0.25
				s0.28-0.22,0.41-0.34s0.24-0.26,0.34-0.41s0.19-0.29,0.25-0.44c0.06-0.17,0.11-0.33,0.14-0.5s0.05-0.34,0.05-0.53
				C115.42,14.48,115.4,14.32,115.37,14.15z"/>
		</g>
		<g>
			<g>
				<circle class="st0" cx="51.76" cy="117.68" r="4"/>
			</g>
			<g>
				<circle class="st0" cx="69.76" cy="109.68" r="4"/>
			</g>
			<g>
				<circle class="st0" cx="84.76" cy="100.68" r="4"/>
			</g>
			<g>
				<circle class="st0" cx="99.76" cy="88.68" r="4"/>
			</g>
			<g>
				<circle class="st0" cx="104.76" cy="72.68" r="4"/>
			</g>
			<g>
				<circle class="st0" cx="91.76" cy="61.67" r="4"/>
			</g>
			<g>
				<circle class="st0" cx="75.76" cy="60.67" r="4"/>
			</g>
			<g>
				<circle class="st0" cx="57.76" cy="60.67" r="4"/>
			</g>
			<g>
				<circle class="st0" cx="44.76" cy="52.67" r="4"/>
			</g>
			<g>
				<circle class="st0" cx="47.76" cy="38.67" r="4"/>
			</g>
			<g>
				<circle class="st0" cx="64.76" cy="32.67" r="4"/>
			</g>
			<g>
				<circle class="st0" cx="81.76" cy="31.67" r="4"/>
			</g>
			<g>
				<circle class="st0" cx="97.76" cy="33.67" r="4"/>
			</g>
		</g>
	</g>
</g>
</svg>
