<?xml version="1.0" encoding="utf-8"?>
<!-- Generator: Adobe Illustrator 23.0.6, SVG Export Plug-In . SVG Version: 6.00 Build 0)  -->
<svg version="1.1" id="bold" xmlns="http://www.w3.org/2000/svg" xmlns:xlink="http://www.w3.org/1999/xlink" x="0px" y="0px"
	 viewBox="0 0 128 128" style="enable-background:new 0 0 128 128;" xml:space="preserve">
<style type="text/css">
	.st0{fill:#B9D0FF;}
</style>
<g>
	<g>
		<g>
			<path class="st0" d="M109.2,25.7c-1,0-1.9-0.4-2.7-1C94.8,13.9,79.6,8,64,8s-30.8,5.9-42.5,16.6c-1.6,1.5-4.2,1.4-5.7-0.2
				c-1.5-1.6-1.4-4.2,0.3-5.7C29.3,6.6,46.4,0,64,0s34.7,6.6,47.9,18.7c1.6,1.5,1.8,4,0.3,5.6C111.4,25.2,110.3,25.7,109.2,25.7
				L109.2,25.7z"/>
		</g>
		<g>
			<path class="st0" d="M116,51.8c-1.3,0-2.6-0.6-3.3-1.8C101.6,33.6,83.4,23.7,64,23.7s-37.6,9.9-48.7,26.4
				c-1.2,1.8-3.7,2.3-5.6,1.1c-1.8-1.2-2.3-3.7-1.1-5.6c12.6-18.8,33.3-30,55.3-30s42.7,11.2,55.3,30c1.2,1.8,0.8,4.3-1.1,5.6
				C117.6,51.6,116.8,51.8,116,51.8L116,51.8z"/>
		</g>
		<g>
			<path class="st0" d="M51.4,128c-1,0-2-0.4-2.8-1.2c-0.9-0.9-21.4-21.8-21.4-42c0-20.9,16.5-37.9,36.8-37.9s36.8,17,36.8,37.9
				c0,2.2-1.8,4-4,4s-4-1.8-4-4c0-16.5-12.9-29.9-28.8-29.9S35.2,68.3,35.2,84.8c0,16.9,18.9,36.1,19,36.3c1.6,1.6,1.6,4.1,0,5.6
				C53.4,127.6,52.4,128,51.4,128z"/>
		</g>
		<g>
			<path class="st0" d="M76.6,128c-9.6,0-31.9-18.3-34.1-38.7c-0.8-7.2,1.5-14.6,6.1-19.7c4-4.5,9.4-7,15.2-7H64
				c5.7,0,11,2.2,15.1,6.3c4.2,4.2,6.6,9.9,6.6,16v2.6c0,6.4,5,11.6,11.2,11.6S108,93.9,108,87.5v-0.9c0-24.9-18-45.6-41.1-47.2
				c-12-0.8-23.5,3.3-32.4,11.6C25.3,59.7,20,72,20,84.9c0,10.6,3.6,20.9,10.1,29c1.4,1.7,1.1,4.2-0.6,5.6s-4.2,1.1-5.6-0.6
				c-7.6-9.6-11.8-21.7-11.8-34c0-15.1,6.2-29.5,17-39.7c10.5-9.8,24.2-14.8,38.4-13.8C94.7,33.2,116,57.5,116,86.6v0.9
				c0,10.8-8.6,19.6-19.2,19.6s-19.2-8.8-19.2-19.6v-2.6c0-3.9-1.5-7.6-4.2-10.3c-2.6-2.6-5.9-4-9.4-4c0,0,0,0-0.1,0
				c-4.5,0-7.6,2.4-9.3,4.3c-3.1,3.5-4.7,8.6-4.1,13.6c1.8,16.6,20.9,31.5,26.1,31.5c2.2,0,4,1.8,4,4S78.8,128,76.6,128L76.6,128z"
				/>
		</g>
		<g>
			<path class="st0" d="M91.5,120.2c-14.3,0-31.8-17.5-31.8-37.9c0-2.2,1.8-4,4-4s4,1.8,4,4c0,15.8,13.3,29.9,23.8,29.9
				c2.2,0,4,1.8,4,4S93.7,120.2,91.5,120.2z"/>
		</g>
	</g>
</g>
</svg>
