<?xml version="1.0" encoding="utf-8"?>
<!-- Generator: Adobe Illustrator 23.0.6, SVG Export Plug-In . SVG Version: 6.00 Build 0)  -->
<svg version="1.1" id="Layer_1" xmlns="http://www.w3.org/2000/svg" xmlns:xlink="http://www.w3.org/1999/xlink" x="0px" y="0px"
	 viewBox="0 0 96 96" style="enable-background:new 0 0 96 96;" xml:space="preserve">
<style type="text/css">
	.st0{opacity:5.000000e-02;}
	.st1{fill:#FFFFFF;}
	.st2{fill:#F84D4D;stroke:#951212;stroke-width:3;stroke-miterlimit:10;}
</style>
<ellipse class="st0" cx="48" cy="80.7" rx="28.4" ry="15.3"/>
<circle class="st1" cx="48" cy="30.2" r="11"/>
<path class="st2" d="M48,1.5c-15.8,0-28.7,12.9-28.7,28.7c0,19.6,25.7,48.4,26.8,49.7c1,1.1,2.8,1.1,3.8,0
	c1.1-1.2,26.8-30,26.8-49.7C76.7,14.4,63.8,1.5,48,1.5z M48,41.2c-6.1,0-11-4.9-11-11s4.9-11,11-11s11,4.9,11,11S54.1,41.2,48,41.2z
	"/>
</svg>
