<?xml version="1.0" encoding="utf-8"?>
<!-- Generator: Adobe Illustrator 23.0.6, SVG Export Plug-In . SVG Version: 6.00 Build 0)  -->
<svg version="1.1" id="Layer_1" xmlns="http://www.w3.org/2000/svg" xmlns:xlink="http://www.w3.org/1999/xlink" x="0px" y="0px"
	 viewBox="0 0 128 128" style="enable-background:new 0 0 128 128;" xml:space="preserve">
<g>
	<path d="M119.28,0.56c1.52-0.67,3.1-0.74,4.72-0.21c1.62,0.52,2.76,1.55,3.43,3.07c0.38,0.86,0.57,1.74,0.57,2.64
		s-0.19,1.79-0.57,2.64L72.55,124.58c-0.67,1.52-1.81,2.55-3.43,3.07c-1.62,0.52-3.19,0.45-4.72-0.21
		c-0.86-0.38-1.55-0.93-2.07-1.64c-0.52-0.71-0.93-1.5-1.21-2.36L49.83,78.15L4.68,66.86c-1.62-0.38-2.88-1.31-3.79-2.79
		s-1.12-3.02-0.64-4.64c0.19-0.86,0.57-1.64,1.14-2.36s1.29-1.26,2.14-1.64L119.28,0.56z M56.41,67.29c1.05,0.19,1.98,0.69,2.79,1.5
		c0.81,0.81,1.36,1.79,1.64,2.93l8,32.15l40.29-85.02L24.12,59.14L56.41,67.29z"/>
</g>
</svg>
