<?xml version="1.0" encoding="utf-8"?>
<!-- Generator: Adobe Illustrator 23.0.6, SVG Export Plug-In . SVG Version: 6.00 Build 0)  -->
<svg version="1.1" id="Layer_1" xmlns="http://www.w3.org/2000/svg" xmlns:xlink="http://www.w3.org/1999/xlink" x="0px" y="0px"
	 viewBox="0 0 128 128" style="enable-background:new 0 0 128 128;" xml:space="preserve">
<style type="text/css">
	.st0{fill:#B9D0FF;}
</style>
<g>
	<g>
		<path class="st0" d="M16,80c8.84,0,16-7.16,16-16s-7.16-16-16-16S0,55.16,0,64S7.16,80,16,80z M16,54c5.51,0,10,4.49,10,10
			s-4.49,10-10,10S6,69.51,6,64S10.49,54,16,54z"/>
		<path class="st0" d="M112,48c-8.84,0-16,7.16-16,16s7.16,16,16,16s16-7.16,16-16S120.84,48,112,48z M112,74c-5.51,0-10-4.49-10-10
			s4.49-10,10-10s10,4.49,10,10S117.51,74,112,74z"/>
		<path class="st0" d="M112,96c-7.81,0-14.3,5.6-15.71,13H79.71c-1.41-7.4-7.9-13-15.71-13s-14.3,5.6-15.71,13H31.71
			c-0.42-2.19-1.27-4.22-2.48-5.99l25.78-25.78C57.57,78.98,60.67,80,64,80c8.84,0,16-7.16,16-16c0-3.33-1.02-6.43-2.77-8.99
			l25.78-25.78c2.56,1.74,5.66,2.77,8.99,2.77c8.84,0,16-7.16,16-16s-7.16-16-16-16c-7.81,0-14.3,5.6-15.71,13H79.71
			C78.3,5.6,71.81,0,64,0S49.7,5.6,48.29,13H31.71C30.3,5.6,23.81,0,16,0C7.16,0,0,7.16,0,16s7.16,16,16,16
			c7.81,0,14.3-5.6,15.71-13h16.58c1.41,7.4,7.9,13,15.71,13s14.3-5.6,15.71-13h16.58c0.42,2.19,1.27,4.22,2.48,5.99L72.99,50.77
			C70.43,49.02,67.33,48,64,48c-8.84,0-16,7.16-16,16c0,3.33,1.02,6.43,2.77,8.99L24.99,98.77C22.43,97.02,19.33,96,16,96
			c-8.84,0-16,7.16-16,16s7.16,16,16,16c7.81,0,14.3-5.6,15.71-13h16.58c1.41,7.4,7.9,13,15.71,13s14.3-5.6,15.71-13h16.58
			c1.41,7.4,7.9,13,15.71,13c8.84,0,16-7.16,16-16S120.84,96,112,96z M16,26c-5.51,0-10-4.49-10-10S10.49,6,16,6s10,4.49,10,10
			S21.51,26,16,26z M64,26c-5.51,0-10-4.49-10-10S58.49,6,64,6s10,4.49,10,10S69.51,26,64,26z M112,6c5.51,0,10,4.49,10,10
			s-4.49,10-10,10s-10-4.49-10-10S106.49,6,112,6z M64,54c5.51,0,10,4.49,10,10s-4.49,10-10,10s-10-4.49-10-10S58.49,54,64,54z
			 M16,122c-5.51,0-10-4.49-10-10s4.49-10,10-10s10,4.49,10,10S21.51,122,16,122z M64,122c-5.51,0-10-4.49-10-10s4.49-10,10-10
			s10,4.49,10,10S69.51,122,64,122z M112,122c-5.51,0-10-4.49-10-10s4.49-10,10-10s10,4.49,10,10S117.51,122,112,122z"/>
		<circle class="st0" cx="16" cy="112" r="6"/>
		<circle class="st0" cx="64" cy="112" r="6"/>
		<circle class="st0" cx="112" cy="112" r="6"/>
		<circle class="st0" cx="16" cy="16" r="6"/>
		<circle class="st0" cx="64" cy="16" r="6"/>
		<circle class="st0" cx="112" cy="16" r="6"/>
		<circle class="st0" cx="64" cy="64" r="6"/>
	</g>
</g>
</svg>
