<?xml version="1.0" encoding="utf-8"?>
<!-- Generator: Adobe Illustrator 23.0.6, SVG Export Plug-In . SVG Version: 6.00 Build 0)  -->
<svg version="1.1" id="Layer_1" xmlns="http://www.w3.org/2000/svg" xmlns:xlink="http://www.w3.org/1999/xlink" x="0px" y="0px"
	 viewBox="0 0 1000 1000" style="enable-background:new 0 0 1000 1000;" xml:space="preserve">
<style type="text/css">
	.st0{opacity:0.6;fill:#FFFFFF;}
	.st1{fill:#FFFFFF;}
	.st2{opacity:0.6;}
</style>
<g>
	<path class="st0" d="M836.46,239.76h-0.15c-107.24-0.06-214.48-0.27-321.72,0.42c-11.82,0.08-28.35,7.32-36.73,16.09
		c-145,151.71-289.49,303.97-434.26,455.93c-13.9,14.59-29.04,27.88-43.6,41.78c1.23,2.04,2.46,4.08,3.7,6.12h18.03
		c51.13,0,102.28-0.47,153.4,0.22c17.53,0.24,34.4-6.9,46.75-19.98c108.8-115.15,218.1-229.78,326.97-344.86
		c8.69-9.19,17.36-13.17,29.88-13.08c84.47,0.58,168.95,0.31,253.42,0.31h3.66c8.95,0,16.2-7.62,16.2-17.03V256.77
		C852.02,247.63,845.16,239.78,836.46,239.76z"/>
	<path class="st0" d="M573.48,429.07c-5.62,0.02-12.37,4.14-16.63,8.33c-40.96,40.37-81.52,81.13-122.09,121.89
		c-2.59,2.6-4.32,6.05-8.74,12.39h281.24v186.97h141.09V430.59c-2.6-0.85-3.72-1.53-4.84-1.54
		C753.49,428.9,663.48,428.65,573.48,429.07z"/>
	<path class="st1" d="M902.63,329.66h93.53c2.12,0,3.84-2.53,3.84-5.65v-76.23c0-3.12-1.72-5.65-3.84-5.65h-0.11
		c-22.86,0-45.71,0-68.57,0c-16.82,0-33.63,0-50.45,0.01c-4.11,0-4.12,0-4.12,6.24c0,8.7-0.01,17.39,0.01,26.09
		c0.01,3.07,1.72,5.59,3.81,5.59h93.64c2.12,0,3.84,2.53,3.84,5.65v0.67c0,3.12-1.72,5.65-3.84,5.65H877
		c-2.12,0-3.84,2.53-3.84,5.65v75.97c0,3.12,1.72,5.65,3.84,5.65h119.15c2.12,0,3.84-2.53,3.84-5.65v-26.19
		c0-3.12-1.72-5.65-3.84-5.65h-93.52c-2.12,0-3.84-2.53-3.84-5.65v-0.84C898.79,332.19,900.51,329.66,902.63,329.66z"/>
	<g class="st2">
		<path class="st1" d="M872.36,463.79l47.17-10.75l-0.19-13.12l-47.48-9.34l0.13,8.99l9.29,1.62l0.16,11.01l0.14,0l-9.37,1.9
			L872.36,463.79z M911.18,446.11v0.18l-23.33,4.67l-0.13-8.72L911.18,446.11z"/>
		<path class="st1" d="M884.19,495.32c2.97-0.04,5.56-0.85,7.74-2.41c2.18-1.56,4.6-4.39,7.25-8.48c2.07-3.2,3.84-5.42,5.31-6.64
			c1.47-1.23,3.06-1.85,4.78-1.88c3.02-0.04,4.55,1.55,4.6,4.78c0.02,1.58-0.33,2.79-1.06,3.63c-0.73,0.83-1.91,1.26-3.53,1.29
			l-2.43,0.04l0.14,9.16l1.96-0.03c3.83-0.06,6.75-1.29,8.77-3.7c2.02-2.41,2.99-5.93,2.92-10.57c-0.07-4.7-1.15-8.26-3.24-10.7
			c-2.09-2.44-5-3.63-8.74-3.57c-2.75,0.04-5.21,0.87-7.37,2.49c-2.16,1.62-4.56,4.44-7.21,8.48c-2.07,3.2-3.85,5.4-5.35,6.6
			c-1.49,1.2-3.23,1.81-5.21,1.84c-1.67,0.03-2.88-0.38-3.63-1.22c-0.76-0.84-1.15-2.08-1.17-3.73c-0.05-3.35,1.46-5.04,4.52-5.09
			l3.24-0.05l-0.14-9.16l-2.7,0.04c-3.83,0.06-6.76,1.31-8.77,3.74c-2.01,2.44-2.99,6.01-2.92,10.7c0.07,4.76,1.16,8.37,3.27,10.83
			C877.32,494.18,880.31,495.38,884.19,495.32z"/>
		<path class="st1" d="M884.67,528.09c2.98-0.04,5.56-0.85,7.74-2.41c2.18-1.56,4.6-4.39,7.24-8.48c2.07-3.2,3.84-5.42,5.31-6.64
			c1.47-1.23,3.06-1.85,4.77-1.88c3.02-0.04,4.55,1.55,4.6,4.78c0.02,1.58-0.33,2.8-1.06,3.63c-0.73,0.83-1.91,1.26-3.53,1.29
			l-2.43,0.04l0.14,9.16l1.96-0.03c3.83-0.06,6.75-1.29,8.77-3.7c2.02-2.41,2.99-5.93,2.92-10.57c-0.07-4.7-1.15-8.26-3.24-10.7
			c-2.09-2.43-5-3.62-8.74-3.57c-2.75,0.04-5.2,0.87-7.37,2.49c-2.16,1.62-4.57,4.44-7.21,8.48c-2.07,3.2-3.85,5.4-5.35,6.6
			s-3.23,1.81-5.21,1.84c-1.67,0.03-2.88-0.38-3.64-1.22c-0.76-0.84-1.15-2.09-1.17-3.73c-0.05-3.35,1.46-5.04,4.52-5.09l3.24-0.05
			l-0.14-9.16l-2.7,0.04c-3.83,0.06-6.75,1.31-8.77,3.74c-2.02,2.44-2.99,6.01-2.92,10.7c0.07,4.76,1.16,8.37,3.27,10.83
			C877.8,526.95,880.8,528.15,884.67,528.09z"/>
		
			<rect x="873.47" y="533.46" transform="matrix(0.9999 -0.0149 0.0149 0.9999 -7.9266 13.4365)" class="st1" width="47.33" height="9.69"/>
		<path class="st1" d="M885.42,577.77c2.97-0.04,5.55-0.84,7.74-2.4c2.19-1.56,4.6-4.39,7.25-8.48c2.07-3.2,3.84-5.42,5.31-6.64
			c1.47-1.23,3.06-1.85,4.78-1.88c3.02-0.04,4.55,1.55,4.6,4.78c0.02,1.58-0.33,2.8-1.06,3.63c-0.73,0.83-1.91,1.26-3.53,1.29
			l-2.43,0.04l0.14,9.16l1.96-0.03c3.83-0.06,6.75-1.29,8.77-3.7c2.01-2.41,2.99-5.93,2.92-10.57c-0.07-4.7-1.15-8.26-3.24-10.7
			c-2.09-2.44-5-3.63-8.74-3.57c-2.75,0.04-5.21,0.87-7.37,2.49c-2.16,1.62-4.57,4.44-7.21,8.48c-2.07,3.2-3.85,5.4-5.35,6.6
			s-3.23,1.81-5.21,1.84c-1.67,0.03-2.88-0.38-3.64-1.22c-0.76-0.84-1.15-2.09-1.17-3.73c-0.05-3.35,1.46-5.04,4.52-5.09l3.25-0.05
			l-0.14-9.16l-2.7,0.04c-3.83,0.06-6.76,1.31-8.77,3.74s-2.99,6.01-2.92,10.7c0.07,4.76,1.16,8.37,3.27,10.83
			C878.55,576.63,881.54,577.83,885.42,577.77z"/>
		<polygon class="st1" points="915.11,610.28 921.87,610.18 921.43,580.23 914.67,580.33 914.82,590.46 874.25,591.06 874.4,600.75 
			914.96,600.15 		"/>
		<path class="st1" d="M922,618.37l-47.47-9.34l0.13,8.98l9.29,1.62l0.16,11.01l0.14,0l-9.37,1.9l0.14,9.69l47.18-10.75L922,618.37z
			 M890.51,629.41l-0.13-8.72l23.46,3.88l0,0.18L890.51,629.41z"/>
		<polygon class="st1" points="909.76,655.02 909.77,655.2 875.39,667.34 875.54,677.3 922.87,676.59 922.74,667.96 894.41,668.38 
			894.41,668.21 922.6,658.36 922.41,646.2 875.09,646.91 875.22,655.54 		"/>
		<path class="st1" d="M887.02,712.28l6.69-0.1l-0.14-9.16l-7.23,0.11c-2.88,0.04-4.35-1.55-4.4-4.78
			c-0.05-3.23,1.37-4.87,4.26-4.91l26.44-0.4c2.93-0.04,4.42,1.55,4.47,4.78c0.05,3.23-1.39,4.87-4.32,4.91l-5.48,0.08l0.14,9.16
			l5-0.07c3.69-0.06,6.54-1.32,8.53-3.78c1.99-2.47,2.95-6.02,2.88-10.66c-0.07-4.64-1.14-8.16-3.2-10.57
			c-2.06-2.41-4.95-3.58-8.64-3.53l-25.42,0.38c-3.7,0.05-6.54,1.31-8.53,3.78c-1.99,2.47-2.95,6.02-2.88,10.66
			c0.07,4.64,1.13,8.16,3.2,10.57C880.44,711.16,883.32,712.34,887.02,712.28z"/>
		<polygon class="st1" points="876.36,732.35 876.76,758.78 883.52,758.68 883.27,741.94 897.8,741.72 898,755.02 904.76,754.92 
			904.57,741.62 917.07,741.44 917.32,758.17 924.08,758.07 923.69,731.64 		"/>
		<path class="st1" d="M934.95,463.7l47.18-10.82l-0.2-13.22l-47.48-9.4l0.14,9.05l9.29,1.63l0.16,11.09l0.14,0l-9.37,1.92
			L934.95,463.7z M973.77,445.9l0,0.18l-23.33,4.7l-0.13-8.78L973.77,445.9z"/>
		<path class="st1" d="M946.67,496.88l36.1-0.54l-0.14-9.4l-36.64,0.55c-1.62,0.03-2.8-0.39-3.54-1.23
			c-0.73-0.85-1.11-2.07-1.13-3.66c-0.02-1.6,0.32-2.83,1.02-3.7c0.71-0.87,1.88-1.31,3.5-1.34l36.64-0.55l-0.14-9.76l-36.11,0.54
			c-3.83,0.06-6.75,1.34-8.77,3.86c-2.01,2.51-2.99,6.13-2.91,10.87c0.07,4.73,1.15,8.32,3.24,10.78
			C939.88,495.74,942.84,496.94,946.67,496.88z"/>
		<path class="st1" d="M947.19,532.19l15.48-0.23l-0.21-14.11l-6.76,0.1l0.07,4.88l-9.26,0.14c-3.06,0.05-4.62-1.62-4.67-4.99
			c-0.05-3.37,1.46-5.08,4.52-5.13l25.89-0.39c3.11-0.05,4.69,1.62,4.74,4.99c0.05,3.37-1.48,5.08-4.59,5.13l-4.53,0.07l0.14,9.23
			l4.06-0.06c3.83-0.06,6.75-1.34,8.77-3.86c2.01-2.51,2.98-6.14,2.92-10.87c-0.07-4.73-1.15-8.32-3.24-10.78
			c-2.09-2.45-5.05-3.65-8.88-3.59l-24.88,0.37c-3.83,0.06-6.75,1.34-8.77,3.86c-2.01,2.51-2.98,6.14-2.91,10.87
			c0.07,4.73,1.15,8.33,3.24,10.78C940.41,531.05,943.36,532.25,947.19,532.19z"/>
		<polygon class="st1" points="983.79,564.47 949.82,558.77 949.82,558.59 983.6,551.88 983.39,537.95 936.07,538.66 936.19,547.17 
			972.03,546.64 972.03,546.81 936.3,554.44 936.42,562.61 972.36,569.17 972.37,569.35 936.53,569.88 936.67,579.11 984,578.4 		
			"/>
		<polygon class="st1" points="943.69,596.04 958.22,595.82 958.42,609.21 965.18,609.11 964.98,595.72 977.49,595.53 
			977.74,612.39 984.5,612.28 984.11,585.67 936.78,586.38 937.18,612.99 943.94,612.89 		"/>
		<polygon class="st1" points="984.91,639.79 956.58,640.21 956.58,640.03 984.77,630.12 984.59,617.88 937.26,618.58 
			937.39,627.28 971.94,626.76 971.94,626.94 937.57,639.16 937.72,649.19 985.04,648.48 		"/>
		<polygon class="st1" points="978.8,683.44 985.56,683.34 985.11,653.18 978.35,653.28 978.5,663.48 937.94,664.09 938.09,673.85 
			978.65,673.24 		"/>
		<polygon class="st1" points="945.21,698.41 959.75,698.19 959.95,711.58 966.71,711.48 966.51,698.09 979.02,697.9 979.27,714.76 
			986.03,714.66 985.63,688.04 938.31,688.75 938.7,715.36 945.46,715.26 		"/>
		<path class="st1" d="M938.79,720.95l0.22,14.9c0.07,4.85,1.12,8.47,3.14,10.86s4.94,3.56,8.78,3.51l23.93-0.36
			c3.83-0.06,6.72-1.31,8.67-3.77c1.95-2.46,2.89-6.11,2.81-10.95l-0.22-14.9L938.79,720.95z M978.54,738.77
			c-0.71,0.87-1.87,1.31-3.49,1.34l-24.61,0.37c-1.62,0.03-2.8-0.39-3.53-1.23c-0.74-0.85-1.12-2.07-1.14-3.66l-0.08-4.97
			l33.81-0.51l0.07,4.97C979.6,736.67,979.25,737.9,978.54,738.77z"/>
	</g>
</g>
</svg>
